<svg viewBox="0 0 16 16" fill="none" xmlns="http://www.w3.org/2000/svg">
  <g clip-path="url(#clip0)">
    <path
      d="M15.683 8.184c0-.544-.044-1.09-.139-1.626H8v3.08h4.32a3.703 3.703 0 01-1.598 2.432v1.999h2.578c1.514-1.394 2.384-3.451 2.384-5.885z"
      fill="#4285F4" />
    <path
      d="M7.999 16c2.157 0 3.977-.709 5.303-1.931l-2.578-2c-.718.489-1.644.765-2.722.765-2.088 0-3.857-1.408-4.492-3.301H.85v2.06A8.001 8.001 0 007.999 16z"
      fill="#34A853" />
    <path d="M3.507 9.533a4.792 4.792 0 010-3.063V4.41H.85a8.007 8.007 0 000 7.184l2.657-2.061z" fill="#FBBC04" />
    <path
      d="M7.999 3.166a4.347 4.347 0 013.069 1.2l2.284-2.285A7.689 7.689 0 007.998.001a7.998 7.998 0 00-7.15 4.408L3.508 6.47c.632-1.896 2.405-3.304 4.492-3.304z"
      fill="#EA4335" />
  </g>
  <defs>
    <clipPath id="clip0">
      <path fill="#fff" d="M0 0h15.682v16H0z" />
    </clipPath>
  </defs>
</svg>
